<svg width="50" height="50" viewBox="0 0 50 50" fill="none" xmlns="http://www.w3.org/2000/svg">
    <circle cx="25" cy="25" r="25" fill="#F9F9FB"/>
    <path fill-rule="evenodd" clip-rule="evenodd" d="M23.5093 14C22.8644 14 22.4282 14.5621 22.4282 15.1149V32.8767C22.4282 33.4295 22.8644 34 23.5093 34H26.7525C27.3975 34 27.8336 33.4295 27.8336 32.8767V15.1149C27.8336 14.5621 27.3975 14 26.7525 14H23.5093ZM24.0498 15.6216H26.212V17.7837H24.0498V15.6216ZM16.4522 16.1621C15.8673 16.1621 15.3711 16.6583 15.3711 17.2432V32.9189C15.3711 33.5038 15.8673 33.9999 16.4522 33.9999H19.6954C20.2803 33.9999 20.7765 33.5038 20.7765 32.9189V17.2432C20.7765 16.6583 20.2803 16.1621 19.6954 16.1621H16.4522ZM16.9927 17.7838H19.1548V19.4054H16.9927V17.7838ZM24.0498 19.4054H26.212V28.5946H24.0498V19.4054ZM16.9927 21.027H19.1548V29.1351H16.9927V21.027ZM24.0498 30.2162H26.212V32.3783H24.0498V30.2162ZM16.9927 30.7567H19.1548V32.3783H16.9927V30.7567ZM32.5234 30.698L34.656 30.3414L34.9234 31.9409L32.7908 32.2974L32.5234 30.698ZM33.3188 22.3444L34.3885 28.742L32.2559 29.0986L31.1863 22.7009L33.3188 22.3444ZM30.6516 19.5021L32.7842 19.1455L33.0516 20.7449L30.919 21.1015L30.6516 19.5021ZM29.8509 17.9918C29.3036 18.0833 28.8587 18.6129 28.9587 19.2114L31.2833 33.1147C31.3833 33.7132 31.9777 34.0775 32.525 33.986L35.7239 33.4512C36.2712 33.3597 36.7147 32.8218 36.6147 32.2233L34.2901 18.32C34.1901 17.7215 33.597 17.3655 33.0497 17.457L29.8509 17.9918Z" fill="black"/>
</svg>
    